<?xml version="1.0" encoding="utf-8"?>
<!-- Generator: Adobe Illustrator 15.0.0, SVG Export Plug-In . SVG Version: 6.00 Build 0)  -->
<!DOCTYPE svg PUBLIC "-//W3C//DTD SVG 1.1//EN" "http://www.w3.org/Graphics/SVG/1.1/DTD/svg11.dtd">
<svg version="1.1" id="about" xmlns="http://www.w3.org/2000/svg" xmlns:xlink="http://www.w3.org/1999/xlink" x="0px" y="0px"
	 width="123.833px" height="107.439px" viewBox="0 0 123.833 107.439" enable-background="new 0 0 123.833 107.439"
	 xml:space="preserve">
<g>
	<g>
		<path fill="#02263E" d="M76.109,77.187L46.032,47.108L78.26,14.881l30.076,30.077L76.109,77.187z M48.86,47.108l27.249,27.249
			l29.397-29.397L78.26,17.709L48.86,47.108z"/>
	</g>
	<path fill="#02263E" d="M86.982,36.235c-4.528-4.529-11.899-4.529-16.431,0c-2.155,2.155-3.272,4.955-3.377,7.784
		c-5.422-0.809-11.614,1.06-16.575,5.429l1.84,1.84c4.539-3.939,10.162-5.586,14.921-4.66c0.419,2.213,1.48,4.329,3.191,6.038
		c1.709,1.71,3.824,2.772,6.037,3.19c0.927,4.761-0.721,10.381-4.659,14.92l1.841,1.842c4.369-4.96,6.236-11.153,5.43-16.575
		c2.828-0.104,5.629-1.223,7.782-3.377C91.513,48.136,91.514,40.765,86.982,36.235z M85.167,38.052
		c2.062,2.063,2.908,4.877,2.562,7.566c-1.2-2.867-4.058-7.416-10.576-10.063C79.973,35.046,82.989,35.875,85.167,38.052z
		 M72.37,50.848c-3.529-3.528-3.529-9.269,0-12.796c0.918-0.917,1.985-1.591,3.125-2.031c8.471,2.886,11.104,9,11.815,11.375
		c-0.433,1.262-1.142,2.448-2.146,3.453C81.638,54.377,75.897,54.377,72.37,50.848z"/>
	<circle fill="#02263E" cx="77.141" cy="41.925" r="0.896"/>
	<circle fill="#02263E" cx="81.472" cy="46.255" r="0.896"/>
	<g>
		<path fill="#02263E" d="M74.439,48.916c-0.043-0.042-0.085-0.087-0.126-0.132c-1.13-1.262-0.934-3.001-0.925-3.075
			c0.032-0.273,0.28-0.468,0.555-0.437c0.272,0.033,0.47,0.279,0.438,0.555c-0.002,0.014-0.146,1.376,0.682,2.295
			c0.543,0.607,1.404,0.9,2.559,0.889c0.276-0.003,0.502,0.218,0.506,0.494c0.002,0.277-0.219,0.502-0.494,0.506
			C76.254,50.026,75.18,49.657,74.439,48.916z"/>
	</g>
</g>
<polygon opacity="0.2" fill="#02263E" enable-background="new    " points="58.84,103.487 7.582,77.47 39.1,16.036 40.091,16.544 
	41.7,13.998 37.801,11.997 3.544,78.771 57.521,106.462 "/>
<polygon opacity="0.2" fill="#02263E" enable-background="new    " points="65.413,93.831 26.111,55.833 74.105,6.193 74.905,6.967 
	77.185,4.998 74.034,1.951 21.869,55.906 65.067,97.67 66.327,95.326 "/>
<path fill="#02263E" d="M121.026,45.089L78.129,2.191L60.029,20.289l-18.563-9.523L7.211,77.538l53.978,27.69l4.696-9.15
	l2.076,2.074L121.026,45.089z M116.784,45.089L67.961,93.912L29.305,55.257L78.129,6.433L116.784,45.089z M37.488,67.683
	L27.367,62.49l1.672-3.258L37.488,67.683z M37.416,42.903l8.93-17.404l5.602,2.874L37.416,42.903z M59.889,101.192L11.25,76.24
	l31.518-61.435l15.035,7.713l-4.369,4.369l-7.954-4.081L32.801,47.519l-7.738,7.738l2.49,2.49l-2.877,5.608l17.428,8.939
	L63.655,93.85L59.889,101.192z"/>
</svg>
