<?xml version="1.0" encoding="utf-8"?>
<!-- Generator: Adobe Illustrator 15.0.0, SVG Export Plug-In . SVG Version: 6.00 Build 0)  -->
<!DOCTYPE svg PUBLIC "-//W3C//DTD SVG 1.1//EN" "http://www.w3.org/Graphics/SVG/1.1/DTD/svg11.dtd">
<svg version="1.1" id="map" xmlns="http://www.w3.org/2000/svg" xmlns:xlink="http://www.w3.org/1999/xlink" x="0px" y="0px"
	 width="157px" height="141.75px" viewBox="0 0 157 141.75" enable-background="new 0 0 157 141.75" xml:space="preserve">
<path fill="#02263E" d="M139.828,33.476"/>
<g>
	<path fill="#02263E" d="M74.089,96.919l-6.645-7.383l15.484-10.968l4.273,4.959l-5.863,4.561l1.781,2.4L74.089,96.919z
		 M69.209,89.732l5.054,5.615l7.192-5.123l-1.752-2.36l5.794-4.505l-2.763-3.207L69.209,89.732z"/>
</g>
<g>
	<path fill="#02263E" d="M97.5,53.75h-8.688l-0.045-2.709L83.5,51.043V45.75h14V53.75z M90.188,52.438l5.97,0.031l0.03-5.345
		l-11.344-0.03l-0.031,2.656l5.361,0.024L90.188,52.438z"/>
</g>
<g>
	<path fill="#02263E" d="M119.527,44.99l-3.971-4.411l2.914-2.563l-2.138-2.854l12.033-8.523l4.272,4.959l-5.863,4.56l1.781,2.401
		L119.527,44.99z M117.232,40.677l2.469,2.741l7.191-5.122l-1.752-2.361l5.795-4.506l-2.764-3.206l-10.168,7.201l2.066,2.758
		L117.232,40.677z"/>
</g>
<polygon opacity="0.2" fill="#02263E" enable-background="new    " points="103.37,137.738 54.51,128.723 4.5,137.963 4.5,13.877 
	2.5,14.549 2.5,140.285 53.917,132.318 103.59,139.303 149.641,136.546 149.596,132.586 "/>
<path fill="#02263E" d="M103.2,10.031L90.568,7.689l-36.169-6.65L54.513,1L4.5,10.24v127.723l50.01-9.24l48.754,9.017l51.236-5.619
	V4.422L103.2,10.031z M103.5,12.356v4.563l-0.348,0.013l-15.748-2.538L54.5,9.059V3.474l35.465,6.454L103.5,12.356z M103.5,135.277
	l-49-8.873v-5.09l48.105,7.847l0.385,0.019l0.51-0.025V135.277z M53.5,76.384c-5,3.55-9.688,6.853-12.598,9.179
	c-11.563-3.769-22.453-9.332-26.598-11.438c-0.357-0.181-0.805-0.325-0.805-0.44V18.558l40-7.658L53.5,76.384L53.5,76.384z
	 M144.121,47.224c-1.928,1.426-3.879,2.875-5.857,4.345c-7.689,5.715-15.643,11.625-24.107,17.524
	c-0.608,0.422-1.055,0.777-1.379,1.034c-0.196,0.156-0.354,0.282-0.491,0.378c-0.597,0.413-1.292,0.589-2.015,0.649
	c-1.287,0.107-2.709,0.088-4.498,0.088l0,0c-0.461,0-1.272,0.03-1.272,0.023v-8.978c5-0.457,13.222-6.557,22.547-13.583
	c5.629-4.241,11.369-8.613,17.146-12.214L144.121,47.224z M103.5,71.356c-9-0.197-18.549-1.239-22.787-1.713l-0.328-0.024
	l-0.313,0.12C72.546,74.758,62.5,81.783,54.5,87.188V77c8-5.229,16.129-10.949,21.999-14.848l0.419-0.25
	c0.813-0.542,2.049-0.778,3.023-0.662c0.207,0.024,14.559,0.695,23.559,1.053V71.356z M53.5,88.033
	c-1,0.863-2.332,1.677-3.339,2.423l-0.69,0.507l1.348,0.867c0.875,0.568,1.682,1.148,2.682,1.742v9.502
	c-5-3.643-9.512-5.986-11.79-7.133c-0.492-0.248-0.883-0.439-1.133-0.578l-0.119-0.049c-13.358-3.987-22.835-8.867-26.429-10.705
	c-0.231-0.116-0.53-0.217-0.53-0.307v-9.297c0,0.057,0.145,0.112,0.264,0.171c4.205,2.138,15.34,7.81,27.103,11.608l0.285,0.097
	l0.25-0.2c2.751-2.218,7.099-5.4,12.099-8.857L53.5,88.033L53.5,88.033z M53.5,89.489v2.673c-1-0.428-1.303-0.848-1.939-1.262
	C52.171,90.452,52.5,89.975,53.5,89.489z M54.5,105.495c0.813,0.614,1.589,1.271,2.332,1.957c8.113,7.471,9.308,11.038,10.15,13.64
	c0.052,0.164,0.049,0.317,0.1,0.475L54.5,119.521V105.495z M68.508,121.784c-0.124-0.331-0.239-0.675-0.363-1.056
	c-0.884-2.729-2.173-6.465-10.512-14.146c-1.006-0.927-2.133-1.789-3.133-2.599v-9.631c10,6.448,20.229,14.722,22.99,28.908
	L68.508,121.784z M13.5,85.627c0,0.012-0.033,0.021-0.01,0.034c3.617,1.847,13.175,6.751,26.604,10.769
	c0.261,0.141,0.629,0.329,1.104,0.567c2.356,1.187,7.302,3.665,12.302,7.558v15.004l-40,7.656V85.627z M103.08,127.395
	l-24.239-3.929C76.062,108.229,64.5,99.634,54.5,92.938v-4.299C62.5,83.227,72.986,76,80.719,70.84
	c4.377,0.486,13.781,1.371,22.781,1.566v54.968L103.08,127.395z M104.484,72.406c0,0.007,0.828,0.017,1.289,0.017l0,0
	c1.822,0,3.344,0.019,4.664-0.091c0.929-0.078,1.789-0.363,2.556-0.895c0.153-0.105,0.313-0.229,0.532-0.403
	c0.332-0.262,0.735-0.58,1.313-0.981c8.48-5.909,16.438-11.82,24.135-17.541c1.739-1.292,3.45-2.562,5.15-3.82l0.109,74.384
	l-39.732,4.175L104.484,72.406z M144.125,35.106c-6.027,3.7-11.936,8.248-17.791,12.657c-8.77,6.608-17.834,12.861-21.834,13.343
	v-42.53l39.768-4.181L144.125,35.106z M103.5,61.112c-10-0.411-23.041-1.018-23.398-1.044c-1.262-0.149-2.638,0.154-3.686,0.851
	l-0.512,0.25C70.205,64.954,62.5,70.454,54.5,75.563V10.853l32.059,5.217l16.502,2.648L103.5,18.7V61.112z M7.5,12.208l46-8.666
	v5.556l-41,7.996v56.104v11.604v44.556l41-7.996v5.099l-46,8.67V12.208z M151.5,130.007l-47,5.261v-6.237l41.502-4.358
	l0.107-112.242L104.5,16.797v-4.476l47-5.261V130.007z"/>
<path fill="#02263E" d="M35.567,73.12L20.5,66.255v-23.63l1.119-0.785c2.244-1.755,4.666-1.755,5.83-1.755
	c2.269,0,4.698,1.02,7.04,2.952c0.972-0.186,1.977-0.287,2.856-0.287c6.457,0,7.671,5.068,7.719,5.284l0.03,0.194L45.078,63.37
	l-0.224,0.25c-2.841,3.11-7.502,7.728-8.408,8.622L35.567,73.12z M22.094,65.281l13.25,6.156c0.069-0.072,6.496-6.938,8.219-8.813
	l-0.032-14.311c-0.169-0.6-1.275-4-5.938-4c-0.878,0-3.5,0.344-3.5,0.344s-3.281-2.969-6.427-3.073
	c-1.885-0.063-3.825,0.563-5.636,1.979L22.094,65.281z"/>
<path fill="#02263E" d="M136.5,104.406c0,0-19.289,0.084-19.383,0.044c-1.395-0.021-2.469-0.507-3.207-1.265
	c-0.779-0.799-1.12-2.074-1.074-3.905c0.073-2.96,0.061-7.563,0.055-10.022c-0.004-1.033-0.006-1.699-0.002-1.833
	c-0.022-0.278-0.185-3.239,1.717-5.194c1.328-1.366,3.465-1.756,5.895-1.793c2.807-2.52,16-13.406,16-13.406V104.406z
	 M117.156,102.719l17.998,0.031L135,70.063c-3.673,3.03-13.697,11.712-13.805,11.803l-0.153,0.127l-0.199-0.013
	c-0.008,0-0.131-0.008-0.335-0.008c-0.74,0-3.474-0.123-4.742,1.262c-1.423,1.551-1.429,3.951-1.423,4.048
	c-0.002,0.211,0.063,8.938,0.063,12C114.406,102.033,116.096,102.771,117.156,102.719z"/>
</svg>
