<?xml version="1.0" encoding="utf-8"?>
<!-- Generator: Adobe Illustrator 15.0.0, SVG Export Plug-In . SVG Version: 6.00 Build 0)  -->
<!DOCTYPE svg PUBLIC "-//W3C//DTD SVG 1.1//EN" "http://www.w3.org/Graphics/SVG/1.1/DTD/svg11.dtd">
<svg version="1.1" id="contacts" xmlns="http://www.w3.org/2000/svg" xmlns:xlink="http://www.w3.org/1999/xlink" x="0px" y="0px"
	 width="128.75px" height="167px" viewBox="0 0 128.75 167" enable-background="new 0 0 128.75 167" xml:space="preserve">
<g>
	<path fill="#02263E" d="M5.487,143.877"/>
</g>
<g>
	<path fill="#02263E" d="M5.757,143.916"/>
</g>
<g>
	<path fill="#02263E" d="M8.047,86.941v0.49v75.51h119V87.434v-0.492H8.047L8.047,86.941z M124.047,159.941h-113V92.68l56.5,35.521
		l56.5-35.521V159.941z M67.645,125.076L11.544,89.941h112.198L67.645,125.076z"/>
</g>
<g>
	<path fill="#02263E" d="M39.047,152.941h-19v-17h19V152.941z M22.047,150.941h15v-13h-15V150.941z"/>
</g>
<g>
	<line fill="none" x1="81.047" y1="137.941" x2="45.047" y2="137.941"/>
	<rect x="45.047" y="135.941" fill="#02263E" width="36" height="2"/>
</g>
<g>
	<line fill="none" x1="67.047" y1="141.941" x2="45.047" y2="141.941"/>
	<rect x="45.047" y="139.941" fill="#02263E" width="22" height="2"/>
</g>
<g>
	<line fill="none" x1="70.047" y1="145.941" x2="45.047" y2="145.941"/>
	<rect x="45.047" y="143.941" fill="#02263E" width="25" height="2"/>
</g>
<g opacity="0.2">
	<polygon fill="#02263E" points="8.047,162.941 8.047,93.941 5.047,93.941 5.047,165.941 121.047,165.941 121.047,162.941 	"/>
</g>
<g>
	<g opacity="0.2">
		<polygon fill="#02263E" points="21.052,5.414 21.308,26.965 21.308,26.965 1.621,38.302 3.904,39.828 0.401,38.56 16.647,23.886 
			17.135,3.217 		"/>
	</g>
	<path fill="#02263E" d="M20.464,51.946l0.035,24.532l92.569-40.22l-92.679-35.2l0.036,25.398L-0.047,38.247L20.464,51.946z
		 M95.152,37.479l-73.615,13.07L4.447,39.131L95.152,37.479z M22.225,52.213l84.052-14.922L22.255,73.797L22.225,52.213z
		 M106.074,35.485l-83.887-9.308L22.155,3.612L106.074,35.485z M92.617,35.765L5.021,37.359l16.476-9.487L92.617,35.765z"/>
	<g opacity="0.2">
		<polygon fill="#02263E" points="21.103,72.526 17.155,74.791 16.422,53.427 1.733,38.774 21.454,51.676 		"/>
	</g>
</g>

</svg>
