<?xml version="1.0" encoding="utf-8"?>
<!-- Generator: Adobe Illustrator 15.0.0, SVG Export Plug-In . SVG Version: 6.00 Build 0)  -->
<!DOCTYPE svg PUBLIC "-//W3C//DTD SVG 1.1//EN" "http://www.w3.org/Graphics/SVG/1.1/DTD/svg11.dtd">
<svg version="1.1" id="notebook" xmlns="http://www.w3.org/2000/svg" xmlns:xlink="http://www.w3.org/1999/xlink" x="0px" y="0px"
	 width="142.5px" height="137px" viewBox="0 0 142.5 137" enable-background="new 0 0 142.5 137" xml:space="preserve">
<path fill="#02263E" d="M135.51,59.388l-5.136,18.965v41.412v5.133v5.136h10.271v-5.136v-5.135v-41.41L135.51,59.388z
	 M134.318,68.69h2.38l2.589,9.56c-0.456,0.549-0.725,0.622-0.83,0.614c-0.323-0.013-0.703-0.673-0.93-1.067l-0.346-0.604
	l-0.386,0.58c-0.303,0.459-0.87,1.317-1.38,1.281c-0.346-0.02-0.751-0.46-1.146-1.236l-0.328-0.652l-0.407,0.605
	c-0.486,0.723-0.943,1.101-1.282,1.054c-0.215-0.026-0.406-0.222-0.553-0.435L134.318,68.69z M139.361,121.048v2.567h-7.7v-2.567
	H139.361z M134.227,119.766V79.294c0.354,0.39,0.731,0.592,1.139,0.615c0.025,0.002,0.054,0.003,0.08,0.003
	c0.533,0,0.984-0.32,1.35-0.709v40.561L134.227,119.766L134.227,119.766z M131.658,79.514c0.144,0.08,0.303,0.139,0.479,0.161
	c0.405,0.054,0.816-0.092,1.229-0.427v40.518h-1.712V79.514H131.658z M139.361,128.752h-7.7V124.9h7.7V128.752z M137.648,119.766
	V79.396c0.222,0.186,0.478,0.313,0.775,0.323c0.309,0.015,0.617-0.098,0.936-0.341v40.387H137.648L137.648,119.766z"/>
<g opacity="0.2">
	<polygon fill="#02263E" points="130.374,130.036 130.374,78.354 134.208,64.193 133.369,61.099 128.234,80.063 128.234,131.746 
		138.505,131.746 138.505,130.036 	"/>
</g>
<path opacity="0.2" fill="#02263E" enable-background="new    " d="M109.507,129.406L5.521,129.482c0,0-0.146-118.958-0.146-123.773
	c-3.229,0.75-4.422,2.355-4.422,2.355v126.03h108.554V129.406z"/>
<g>
	<g>
		<g>
			<g>
				<path fill="#02263E" d="M95.451,120.643l-5.633-4.369h-2.073c-2.251,0-4.083-1.832-4.083-4.084v-4.881
					c0-2.252,1.832-4.082,4.083-4.082h8.694c2.252,0,4.084,1.83,4.084,4.082v4.881c0,2.252-1.832,4.084-4.084,4.084H95.48
					L95.451,120.643z M87.745,104.72c-1.429,0-2.589,1.161-2.589,2.589v4.881c0,1.429,1.16,2.59,2.589,2.59h2.586l3.646,2.83
					l0.021-2.83h2.442c1.429,0,2.59-1.161,2.59-2.59v-4.881c0-1.428-1.161-2.589-2.59-2.589H87.745z"/>
			</g>
		</g>
	</g>
</g>
<path fill="#02263E" d="M114.678,8.077V5.02H45.212L41.192,1H27.859v4.02H16.901L16.31,4.726c-1.837-0.918-3.776-1.385-5.767-1.385
	c-3.391,0-5.764,1.377-5.862,1.436L3.925,5.222v126.03h11.859h1.374H114.7v-2.996h3.7V8.077H114.678z M6.223,128.948L6.208,6.184
	c0.753-0.294,2.78-0.896,4.316-0.896c1.209,0,3.306,0.456,4.455,0.908l0.015,122.752H6.223z M41.192,3.229l1.792,1.792h-1.792V3.229
	z M39.192,26.287l-3.794,3.794l-0.872-0.42l-4.667,2.248v-2.515l0.01,0.01l9.323-9.323V26.287z M39.192,27.701v4.208l-2.84-1.368
	L39.192,27.701z M39.192,18.667L29.859,28v-6.088l9.333-9.333V18.667z M39.192,11.165l-9.333,9.333v-5.832l9.333-9.333V11.165z
	 M39.192,3.919l-9.333,9.333V7.979l4.978-4.978h4.355V3.919z M33.423,3.001L29.86,6.564V3.001H33.423z M112.025,128.986H17.159
	V7.295h10.7v27.798l6.667-3.211l6.666,3.211V7.295h70.833V128.986z M116.788,126.641H114.7L114.68,9.693h2.108V126.641z"/>

</svg>
